<svg width="398" height="390" viewBox="0 0 398 390" fill="none" xmlns="http://www.w3.org/2000/svg">
<rect width="398" height="390" rx="80" fill="#02A1FD"/>
<path d="M227.683 65.0403C232.583 62.0123 236.788 57.6303 241.423 54.1493C253.228 45.1758 269.298 36.2048 284.693 39.8213C302.303 43.9573 320.728 60.7903 330.098 75.4098C356.093 116.01 352.458 169.369 317.443 203.598C305.508 215.263 301.028 220.108 283.408 213.153C276.368 210.373 269.068 207.463 262.173 204.213C261.183 213.603 259.058 222.838 255.853 231.718C247.468 254.963 231.963 274.963 211.543 288.883C167.868 318.653 109.683 315.568 69.3999 281.343C29.1169 247.123 16.6674 190.203 38.9869 142.288C61.3059 94.3738 112.89 67.2813 165.008 76.1003C178.253 63.9253 198.488 63.0613 215.648 63.9823C219.598 64.1943 223.748 64.9598 227.683 65.0403Z" fill="#FED50D"/>
<path d="M227.683 65.0403C232.583 62.0123 236.788 57.6303 241.423 54.1493C253.228 45.1758 269.298 36.2048 284.693 39.8213C302.303 43.9573 320.728 60.7903 330.098 75.4098C356.093 116.01 352.458 169.369 317.443 203.598C305.508 215.263 301.028 220.108 283.408 213.153C276.368 210.373 269.068 207.463 262.173 204.213C264.388 183.271 260.933 162.121 252.163 142.977C250.598 139.553 248.863 136.207 246.973 132.95C229.463 102.758 199.423 81.9243 165.008 76.1003C178.253 63.9253 198.488 63.0613 215.648 63.9823C219.598 64.1943 223.748 64.9598 227.683 65.0403Z" fill="#5CF600"/>
<path d="M246.917 126.415C244.397 122.43 245.406 114.435 246.396 109.938C248.461 100.525 254.231 92.3416 262.401 87.2376C271.316 81.6816 282.082 79.9277 292.292 82.3672C301.852 84.6157 310.091 90.6322 315.146 99.0497C327.006 118.618 317.861 144.927 296.176 151.786C292.006 153.106 286.122 154.58 281.792 153.59L281.616 153.128C268.971 156.265 260.782 151.314 252.162 142.977C250.597 139.553 248.862 136.207 246.972 132.95C246.892 130.721 246.767 128.644 246.917 126.415Z" fill="#E6E6E6"/>
<path d="M246.918 126.414C246.958 124.145 247.013 121.39 247.878 119.386C259.108 93.352 297.833 109.199 295.418 135.075C294.533 144.552 289.873 149.784 281.618 153.127C268.973 156.264 260.783 151.313 252.163 142.976C250.598 139.552 248.863 136.206 246.973 132.949C246.893 130.72 246.768 128.643 246.918 126.414Z" fill="black"/>
<path d="M146.613 109.607C158.906 101.779 176.932 90.7873 192.487 93.8608C201.957 95.7318 211.817 110.355 216.227 118.352C229.177 141.839 233.182 160.377 228.252 186.497C229.202 189.007 228.747 195.072 228.502 197.862C226.527 220.257 215.857 241.097 198.367 255.392C181.232 269.492 159.172 276.147 137.101 273.882C88.7536 268.832 56.9621 226.982 62.2401 179.17C53.1611 151.333 63.6891 139.065 89.5006 130.679C92.0706 127.633 96.9061 124.463 100.294 122.323C114.886 113.102 129.636 109.895 146.613 109.607Z" fill="#5CF600"/>
<path d="M228.251 186.495C229.201 189.005 228.746 195.07 228.501 197.86C226.526 220.255 215.856 241.096 198.366 255.391C181.231 269.491 159.171 276.145 137.1 273.88C88.7527 268.83 56.9612 226.98 62.2392 179.168C65.4147 185.47 67.5767 191.08 71.1957 197.285C83.0777 217.65 101.056 233.06 123.585 240.31C144.205 246.95 168.281 246.19 187.571 235.935C209.121 224.48 221.061 209.45 228.251 186.495Z" fill="#D0EDFD"/>
<path d="M89.5 130.677C92.07 127.631 96.9055 124.461 100.293 122.321C114.885 113.1 129.636 109.893 146.613 109.605C139.491 114.91 134.643 118.261 129.854 125.846C113.905 125.935 105 127.349 89.5 130.677Z" fill="#D0EDFD"/>
<path d="M168.686 138.945C175.086 138.322 179.611 139.789 182.921 145.698C184.386 148.101 184.611 154.15 183.111 156.564C174.886 169.834 164.841 182.433 155.532 195.007C147.34 206.067 135.28 197.667 125.706 193.222C120.592 190.937 112.334 188.037 110.484 183.106C105.413 169.592 119.625 160.192 131.267 167.736C132.985 168.849 137.903 170.924 139.797 171.847C147.758 163.582 154.933 149.267 163.636 141.348C164.871 140.223 167.096 139.482 168.686 138.945Z" fill="#E6E6E6"/>
<path d="M255.853 231.719C269.338 243.229 287.108 261.994 300.178 274.884L320.723 295.089C331.373 305.604 339.808 312.179 340.983 328.194C341.673 337.319 338.673 346.339 332.658 353.234C325.193 361.709 313.078 366.549 301.758 365.744C292.523 365.089 284.708 361.034 278.018 354.704C262.638 340.159 247.868 324.924 232.948 309.904C228.903 305.849 215.703 292.049 211.543 288.884C231.963 274.964 247.468 254.964 255.853 231.719Z" fill="#FE5C69"/>
</svg>
